<?xml version="1.0" standalone="no"?><svg xmlns="http://www.w3.org/2000/svg" viewBox="0 0 1440 320"><path fill="#7d6da3" fill-opacity="1" d="M0,0L20,53.3C40,107,80,213,120,240C160,267,200,213,240,165.3C280,117,320,75,360,53.3C400,32,440,32,480,58.7C520,85,560,139,600,138.7C640,139,680,85,720,80C760,75,800,117,840,122.7C880,128,920,96,960,122.7C1000,149,1040,235,1080,272C1120,309,1160,299,1200,256C1240,213,1280,139,1320,128C1360,117,1400,171,1420,197.3L1440,224L1440,320L1420,320C1400,320,1360,320,1320,320C1280,320,1240,320,1200,320C1160,320,1120,320,1080,320C1040,320,1000,320,960,320C920,320,880,320,840,320C800,320,760,320,720,320C680,320,640,320,600,320C560,320,520,320,480,320C440,320,400,320,360,320C320,320,280,320,240,320C200,320,160,320,120,320C80,320,40,320,20,320L0,320Z"></path></svg>