<?xml version="1.0" standalone="no"?><svg xmlns="http://www.w3.org/2000/svg" viewBox="0 0 1440 320"><path fill="#7d6da3" fill-opacity="1" d="M0,0L20,53.3C40,107,80,213,120,240C160,267,200,213,240,165.3C280,117,320,75,360,53.3C400,32,440,32,480,58.7C520,85,560,139,600,138.7C640,139,680,85,720,80C760,75,800,117,840,122.7C880,128,920,96,960,122.7C1000,149,1040,235,1080,272C1120,309,1160,299,1200,256C1240,213,1280,139,1320,128C1360,117,1400,171,1420,197.3L1440,224L1440,0L1420,0C1400,0,1360,0,1320,0C1280,0,1240,0,1200,0C1160,0,1120,0,1080,0C1040,0,1000,0,960,0C920,0,880,0,840,0C800,0,760,0,720,0C680,0,640,0,600,0C560,0,520,0,480,0C440,0,400,0,360,0C320,0,280,0,240,0C200,0,160,0,120,0C80,0,40,0,20,0L0,0Z"></path></svg>